# xmcd
#
# Track frame offsets:
#	150
#	4707
#	24759
#	43295
#	65651
#	78383
#	96803
#	115440
#	134647
#	155551
#	171386
#	190777
#
# Disc length: 2955 seconds
#
# Revision: 1
# Processed by: cddbd v1.5.1PL0 Copyright (c) Steve Scherf et al.
# Submitted via: audiograbber 1.81.02
#
DISCID=a10b890c
DTITLE=The Rovers - På nye eventyr
DYEAR=2005
DGENRE=Hip-Hop
TTITLE0=Det var en gang
TTITLE1=Ferien min
TTITLE2=Kakot
TTITLE3=Ooh shit
TTITLE4=Infinite (Sirius)
TTITLE5=Ta på meg (Isolasjon)
TTITLE6=En ruver kar
TTITLE7=På kanten av stupet (Optik)
TTITLE8=Slapp av
TTITLE9=Min tur (DVD)
TTITLE10=Jeg er
TTITLE11=Så levde de lykkelig - Bonuslåt: Ekkel
EXTD=
EXTT0=
EXTT1=
EXTT2=
EXTT3=
EXTT4=
EXTT5=
EXTT6=
EXTT7=
EXTT8=
EXTT9=
EXTT10=
EXTT11=
PLAYORDER=
